<?xml version="1.0" standalone="no"?>
<!DOCTYPE svg PUBLIC "-//W3C//DTD SVG 20010904//EN"
 "http://www.w3.org/TR/2001/REC-SVG-20010904/DTD/svg10.dtd">
<svg version="1.0" xmlns="http://www.w3.org/2000/svg"
 width="129.000000pt" height="66.000000pt" viewBox="0 0 129.000000 66.000000"
 preserveAspectRatio="xMidYMid meet">

<g transform="translate(0.000000,66.000000) scale(0.100000,-0.100000)"
fill="#000000" stroke="none">
<path d="M265 543 c-11 -48 -13 -50 -40 -57 -18 -5 -34 -1 -54 13 l-28 20 -23
-24 c-22 -23 -22 -25 -6 -51 12 -17 15 -35 11 -52 -8 -32 -21 -42 -57 -42 -25
0 -28 -4 -28 -35 0 -31 3 -35 36 -41 47 -9 64 -45 40 -88 -16 -28 -16 -30 5
-52 21 -22 24 -23 45 -9 13 8 32 15 42 15 14 0 26 15 41 51 l21 51 -22 17
c-32 26 -29 78 6 108 15 12 33 23 41 23 29 0 64 -24 76 -52 12 -29 7 -48 -22
-89 -18 -25 17 -109 45 -109 12 0 32 -7 44 -16 22 -15 25 -15 47 6 l24 23 -20
29 c-29 41 -12 83 37 92 31 6 34 10 34 41 0 31 -3 35 -25 35 -25 0 -65 31 -65
51 0 6 8 24 17 40 17 28 17 30 -4 51 -22 21 -22 21 -57 3 -32 -17 -36 -17 -59
-2 -15 10 -27 28 -29 44 -2 23 -8 29 -35 31 -28 3 -33 0 -38 -25z"/>
<path d="M660 282 c0 -26 -2 -28 -32 -24 -37 6 -58 -16 -58 -59 0 -40 24 -59
71 -57 l39 1 0 84 c0 49 -4 83 -10 83 -5 0 -10 -13 -10 -28z m-2 -70 c6 -59
-47 -87 -70 -37 -17 38 4 77 40 73 23 -2 28 -8 30 -36z"/>
<path d="M932 228 l-2 -88 33 1 c29 2 30 2 5 6 -27 4 -27 6 -31 86 l-3 82 -2
-87z"/>
<path d="M958 303 c7 -3 16 -2 19 1 4 3 -2 6 -13 5 -11 0 -14 -3 -6 -6z"/>
<path d="M1008 273 c5 -21 7 -23 10 -9 2 10 0 22 -6 28 -6 6 -7 0 -4 -19z"/>
<path d="M1211 278 c0 -10 -7 -18 -13 -18 -10 0 -10 -2 -1 -8 6 -4 13 -30 15
-57 3 -45 5 -50 28 -52 25 -3 25 -3 3 7 -19 8 -23 17 -23 54 0 38 3 45 23 49
22 4 22 4 0 6 -12 0 -24 9 -26 19 -4 16 -5 16 -6 0z"/>
<path d="M720 200 c0 -35 2 -61 4 -59 8 8 10 108 3 116 -4 3 -7 -22 -7 -57z"/>
<path d="M783 248 c10 -8 17 -32 20 -63 l3 -50 2 52 c2 38 7 55 20 62 9 6 12
11 7 11 -6 0 -16 -5 -23 -12 -9 -9 -12 -9 -12 0 0 7 -8 12 -17 12 -16 0 -16
-1 0 -12z"/>
<path d="M857 253 c6 -5 14 -33 16 -63 l4 -55 -1 59 c-1 44 -5 60 -16 63 -10
3 -11 2 -3 -4z"/>
<path d="M1072 248 c-17 -17 -15 -74 4 -92 37 -37 94 -8 94 48 0 40 -15 56
-55 56 -17 0 -36 -5 -43 -12z m82 -20 c16 -26 -4 -72 -34 -76 -41 -6 -68 56
-38 86 17 17 58 11 72 -10z"/>
<path d="M1018 195 c3 -17 -1 -31 -9 -37 -12 -8 -11 -9 1 -5 18 4 26 45 12 59
-6 6 -8 0 -4 -17z"/>
</g>
</svg>
